<svg id="svg" version="1.1" width="400" height="225" viewBox="0 0 400 225" xmlns="http://www.w3.org/2000/svg" xmlns:xlink="http://www.w3.org/1999/xlink" style="display: block;"><g id="svgg"><path id="path0" d="M195.779 60.640 C 195.563 60.804,195.385 61.099,195.385 61.295 C 195.385 61.831,195.242 61.862,192.396 61.936 C 190.945 61.974,189.758 62.083,189.758 62.179 C 189.758 62.274,189.353 62.352,188.858 62.352 C 188.362 62.352,187.957 62.447,187.957 62.562 C 187.957 62.677,187.729 62.806,187.451 62.848 C 187.172 62.891,186.972 63.057,187.006 63.218 C 187.040 63.379,186.963 63.447,186.836 63.368 C 186.587 63.214,185.873 63.795,186.070 63.991 C 186.134 64.055,186.002 64.093,185.778 64.074 C 185.553 64.056,185.393 64.163,185.422 64.314 C 185.452 64.464,185.350 64.539,185.195 64.479 C 184.806 64.330,183.357 67.437,183.352 68.430 C 183.350 68.924,183.449 69.198,183.619 69.164 C 183.785 69.131,183.834 69.255,183.747 69.483 C 183.640 69.761,183.684 69.806,183.923 69.662 C 184.182 69.506,184.192 69.533,183.975 69.801 C 183.822 69.990,183.785 70.261,183.889 70.429 C 184.102 70.773,184.942 70.660,184.870 70.297 C 184.841 70.153,185.015 70.103,185.289 70.174 C 185.685 70.278,185.734 70.222,185.604 69.813 C 185.518 69.542,185.548 69.330,185.673 69.330 C 185.795 69.330,186.080 69.266,186.307 69.187 C 186.671 69.061,186.666 69.088,186.269 69.415 C 185.793 69.805,186.344 69.851,187.282 69.498 C 188.151 69.170,188.644 69.165,188.821 69.482 C 188.959 69.728,189.290 69.792,190.068 69.722 C 190.650 69.670,191.189 69.728,191.265 69.851 C 191.349 69.987,191.287 70.003,191.109 69.893 C 190.908 69.769,190.868 69.799,190.984 69.986 C 191.078 70.138,191.293 70.208,191.463 70.143 C 191.632 70.078,191.919 70.172,192.099 70.353 C 192.279 70.533,192.525 70.681,192.644 70.681 C 192.764 70.681,192.922 70.839,192.996 71.033 C 193.073 71.233,193.246 71.314,193.396 71.221 C 193.575 71.110,193.615 71.179,193.517 71.432 C 193.425 71.674,193.488 71.806,193.696 71.806 C 194.062 71.806,194.522 72.540,194.432 72.979 C 194.399 73.139,194.484 73.249,194.621 73.224 C 194.772 73.197,194.825 73.408,194.757 73.764 C 194.670 74.218,194.715 74.309,194.959 74.170 C 195.213 74.026,195.219 74.049,194.992 74.294 C 194.569 74.749,194.653 75.057,195.104 74.708 C 195.479 74.417,195.479 74.425,195.104 74.867 C 194.789 75.238,194.710 75.759,194.710 77.463 C 194.710 78.861,194.614 79.691,194.431 79.874 C 194.208 80.097,194.220 80.197,194.487 80.366 C 194.750 80.532,194.756 80.579,194.515 80.582 C 194.307 80.584,194.243 80.771,194.318 81.161 C 194.405 81.619,194.354 81.709,194.069 81.599 C 193.872 81.524,193.780 81.530,193.863 81.614 C 194.034 81.785,193.268 83.403,192.912 83.622 C 192.760 83.716,192.758 83.903,192.905 84.178 C 193.091 84.527,193.056 84.574,192.680 84.476 C 192.359 84.392,192.234 84.471,192.234 84.761 C 192.234 84.982,192.173 85.101,192.098 85.026 C 192.022 84.951,191.845 84.990,191.704 85.114 C 191.562 85.238,191.100 85.544,190.677 85.796 C 190.076 86.152,189.978 86.296,190.227 86.454 C 190.486 86.618,190.472 86.657,190.152 86.659 C 189.935 86.661,189.758 86.749,189.758 86.854 C 189.758 86.959,189.353 87.005,188.858 86.956 C 188.322 86.902,187.957 86.961,187.957 87.102 C 187.957 87.232,187.805 87.338,187.620 87.338 C 187.434 87.338,187.280 87.465,187.278 87.620 C 187.276 87.825,187.230 87.831,187.110 87.642 C 187.001 87.471,186.189 87.394,184.730 87.417 C 183.301 87.439,182.441 87.359,182.302 87.193 C 182.184 87.051,181.901 86.983,181.673 87.043 C 181.430 87.107,181.074 86.954,180.815 86.676 C 180.542 86.384,180.229 86.256,180.000 86.343 C 179.750 86.439,179.629 86.368,179.629 86.124 C 179.629 85.925,179.539 85.763,179.430 85.763 C 179.052 85.763,178.997 84.881,179.357 84.589 C 179.630 84.368,179.675 84.366,179.546 84.581 C 179.453 84.736,179.484 84.862,179.615 84.862 C 179.746 84.862,179.854 84.768,179.854 84.652 C 179.854 84.537,180.058 84.378,180.307 84.298 C 180.557 84.219,180.708 84.069,180.643 83.964 C 180.578 83.859,180.678 83.620,180.865 83.433 C 181.051 83.246,181.204 82.943,181.204 82.759 C 181.204 82.574,181.331 82.381,181.486 82.329 C 181.705 82.255,181.699 82.152,181.458 81.860 C 181.288 81.654,181.250 81.486,181.373 81.486 C 181.774 81.486,181.712 78.567,181.308 78.412 C 181.051 78.314,180.994 78.103,181.098 77.630 C 181.186 77.230,181.148 76.984,180.997 76.984 C 180.863 76.984,180.754 76.875,180.754 76.743 C 180.754 76.384,180.225 75.922,179.929 76.021 C 179.786 76.068,179.594 75.985,179.502 75.835 C 179.395 75.663,179.429 75.622,179.594 75.724 C 179.737 75.812,179.854 75.777,179.854 75.646 C 179.854 75.515,179.739 75.408,179.598 75.408 C 179.458 75.408,179.113 75.180,178.831 74.902 C 177.987 74.065,177.581 73.779,177.437 73.923 C 177.362 73.998,177.058 73.900,176.761 73.705 C 176.339 73.429,176.152 73.410,175.899 73.620 C 175.670 73.810,175.577 73.815,175.577 73.635 C 175.577 73.496,175.324 73.382,175.014 73.382 C 174.684 73.382,174.475 73.266,174.508 73.101 C 174.595 72.664,168.484 72.629,168.049 73.063 C 167.874 73.239,167.419 73.382,167.039 73.382 C 166.659 73.382,166.348 73.483,166.348 73.607 C 166.348 73.731,166.095 73.832,165.785 73.832 C 165.476 73.832,165.222 73.930,165.222 74.050 C 165.222 74.170,165.400 74.211,165.616 74.142 C 165.929 74.041,165.945 74.061,165.692 74.241 C 165.517 74.366,165.178 74.430,164.939 74.384 C 164.489 74.297,163.440 74.851,163.134 75.337 C 163.038 75.490,162.794 75.551,162.591 75.473 C 162.369 75.388,162.279 75.423,162.364 75.561 C 162.442 75.687,162.231 75.932,161.894 76.106 C 161.195 76.466,160.711 77.011,160.866 77.263 C 160.924 77.357,160.807 77.434,160.606 77.434 C 160.329 77.434,160.279 77.557,160.400 77.939 C 160.548 78.405,160.529 78.418,160.148 78.107 C 159.776 77.804,159.750 77.809,159.880 78.158 C 159.960 78.371,159.913 78.614,159.775 78.699 C 159.624 78.793,159.589 78.752,159.686 78.594 C 159.774 78.451,159.783 78.334,159.705 78.334 C 159.478 78.334,158.920 78.956,158.920 79.208 C 158.920 79.335,158.683 79.675,158.395 79.964 C 158.106 80.252,157.887 80.717,157.908 80.997 C 157.933 81.338,157.846 81.467,157.645 81.390 C 157.377 81.287,157.202 81.989,157.323 82.684 C 157.340 82.786,157.251 82.806,157.124 82.727 C 156.997 82.649,156.894 82.742,156.894 82.936 C 156.894 83.129,156.796 83.286,156.676 83.286 C 156.556 83.286,156.522 83.455,156.601 83.661 C 156.698 83.913,156.659 83.982,156.482 83.873 C 156.312 83.768,156.218 83.880,156.218 84.187 C 156.218 84.488,156.123 84.605,155.961 84.504 C 155.783 84.395,155.738 84.528,155.816 84.934 C 155.878 85.259,155.845 85.472,155.742 85.409 C 155.640 85.346,155.497 85.577,155.424 85.922 C 155.350 86.268,155.196 86.726,155.079 86.941 C 154.963 87.156,154.868 87.536,154.868 87.785 C 154.868 88.035,154.766 88.239,154.643 88.239 C 154.519 88.239,154.418 88.346,154.418 88.477 C 154.418 88.608,154.519 88.653,154.643 88.576 C 154.766 88.500,154.868 88.595,154.868 88.788 C 154.868 88.981,154.741 89.114,154.586 89.083 C 154.426 89.051,154.312 89.239,154.321 89.520 C 154.331 89.791,154.229 89.993,154.096 89.970 C 153.945 89.943,153.860 90.442,153.868 91.310 C 153.877 92.376,153.811 92.667,153.579 92.577 C 153.343 92.487,153.292 92.782,153.341 93.952 C 153.376 94.771,153.339 95.442,153.260 95.442 C 153.180 95.442,153.055 95.599,152.981 95.791 C 152.890 96.028,152.936 96.087,153.126 95.973 C 153.343 95.843,153.346 95.879,153.140 96.133 C 152.806 96.546,152.746 111.960,153.079 111.754 C 153.310 111.611,153.347 111.982,153.296 113.926 C 153.272 114.824,153.354 115.226,153.577 115.311 C 153.813 115.402,153.870 115.795,153.809 116.899 C 153.761 117.756,153.824 118.426,153.960 118.510 C 154.088 118.589,154.192 119.008,154.192 119.441 C 154.192 119.875,154.287 120.171,154.402 120.100 C 154.715 119.906,154.972 120.457,154.899 121.159 C 154.850 121.628,154.934 121.782,155.245 121.794 C 155.616 121.808,155.612 121.829,155.205 122.003 C 154.958 122.110,154.882 122.204,155.037 122.213 C 155.191 122.221,155.318 122.411,155.318 122.634 C 155.318 122.856,155.445 123.175,155.599 123.342 C 155.824 123.584,155.824 123.613,155.599 123.486 C 155.445 123.399,155.318 123.435,155.318 123.566 C 155.318 123.697,155.419 123.804,155.543 123.804 C 155.667 123.804,155.768 123.923,155.768 124.068 C 155.768 124.213,155.945 124.540,156.162 124.796 C 156.537 125.237,156.537 125.245,156.162 124.954 C 155.823 124.692,155.768 124.701,155.768 125.015 C 155.768 125.216,155.869 125.380,155.993 125.380 C 156.117 125.380,156.218 125.582,156.218 125.830 C 156.218 126.078,156.326 126.280,156.457 126.280 C 156.588 126.280,156.638 126.373,156.568 126.486 C 156.498 126.599,156.547 126.727,156.677 126.771 C 156.807 126.814,156.931 127.073,156.951 127.347 C 156.972 127.620,157.117 127.894,157.275 127.954 C 157.432 128.015,157.506 128.209,157.437 128.387 C 157.369 128.565,157.548 128.938,157.835 129.217 C 158.122 129.495,158.230 129.651,158.075 129.564 C 157.903 129.466,157.794 129.541,157.794 129.756 C 157.794 129.949,157.895 130.107,158.019 130.107 C 158.143 130.107,158.247 130.284,158.251 130.501 C 158.260 130.975,158.682 131.561,159.145 131.741 C 159.353 131.822,159.374 131.879,159.201 131.890 C 159.046 131.900,158.920 132.006,158.920 132.126 C 158.920 132.246,159.088 132.279,159.293 132.200 C 159.590 132.087,159.641 132.158,159.539 132.545 C 159.469 132.814,159.504 132.977,159.616 132.908 C 159.728 132.838,159.820 132.990,159.820 133.245 C 159.820 133.500,159.823 133.757,159.828 133.817 C 159.857 134.241,161.427 136.747,161.663 136.748 C 161.825 136.748,161.968 136.900,161.980 137.086 C 162.054 138.237,163.476 140.199,164.206 140.157 C 164.593 140.134,164.738 140.023,164.657 139.811 C 164.566 139.575,164.610 139.558,164.831 139.741 C 165.187 140.037,165.797 139.720,165.572 139.356 C 165.485 139.215,165.497 139.113,165.599 139.130 C 165.993 139.193,166.787 138.825,166.669 138.633 C 166.532 138.413,167.094 137.760,167.419 137.760 C 167.531 137.760,167.766 137.483,167.942 137.143 C 168.117 136.804,168.489 136.311,168.768 136.048 C 169.046 135.785,169.274 135.456,169.274 135.317 C 169.274 135.177,169.477 134.936,169.724 134.782 C 169.972 134.627,170.174 134.275,170.174 133.999 C 170.174 133.667,170.279 133.538,170.483 133.616 C 170.787 133.733,171.160 132.994,171.089 132.414 C 171.071 132.259,171.168 132.133,171.306 132.133 C 171.745 132.133,172.200 131.510,172.200 130.911 C 172.200 130.592,172.290 130.332,172.399 130.332 C 172.509 130.332,172.662 130.104,172.740 129.826 C 172.857 129.411,172.919 129.380,173.082 129.657 C 173.460 130.297,173.476 132.703,173.101 132.470 C 172.965 132.386,172.876 132.696,172.876 133.252 C 172.876 133.863,172.762 134.216,172.538 134.302 C 172.352 134.374,172.200 134.528,172.200 134.646 C 172.200 134.764,172.295 134.802,172.410 134.731 C 172.525 134.660,172.468 134.906,172.282 135.278 C 172.097 135.649,172.018 136.072,172.108 136.216 C 172.216 136.392,172.171 136.418,171.972 136.295 C 171.758 136.163,171.713 136.212,171.811 136.469 C 171.887 136.666,171.803 136.948,171.624 137.096 C 171.446 137.244,171.300 137.600,171.300 137.887 C 171.300 138.174,171.192 138.476,171.059 138.558 C 170.927 138.639,170.873 138.848,170.940 139.021 C 171.006 139.194,170.966 139.336,170.850 139.336 C 170.734 139.336,170.698 139.489,170.769 139.676 C 170.866 139.929,170.797 139.977,170.500 139.863 C 170.225 139.758,170.152 139.792,170.264 139.975 C 170.357 140.125,170.276 140.298,170.076 140.375 C 169.883 140.449,169.724 140.631,169.724 140.778 C 169.724 141.174,169.189 142.258,168.993 142.260 C 168.900 142.261,168.824 142.515,168.824 142.825 C 168.824 143.134,168.717 143.388,168.585 143.388 C 168.454 143.388,168.402 143.476,168.468 143.584 C 168.535 143.692,168.389 144.011,168.144 144.294 C 167.701 144.804,167.512 145.780,167.902 145.539 C 168.015 145.470,168.049 145.633,167.979 145.901 C 167.878 146.286,167.929 146.360,168.218 146.249 C 168.419 146.172,168.639 146.197,168.706 146.305 C 168.772 146.412,168.716 146.538,168.581 146.583 C 168.446 146.628,168.850 146.683,169.480 146.707 C 170.344 146.739,170.625 146.670,170.625 146.426 C 170.625 146.234,170.759 146.155,170.956 146.230 C 171.330 146.374,172.494 145.557,172.256 145.319 C 172.171 145.234,172.257 145.224,172.447 145.297 C 172.919 145.479,174.304 144.141,174.126 143.675 C 174.014 143.383,174.049 143.372,174.334 143.609 C 174.651 143.872,174.777 143.770,174.698 143.315 C 174.680 143.213,174.776 143.198,174.911 143.281 C 175.050 143.367,175.210 143.230,175.279 142.968 C 175.346 142.712,175.592 142.441,175.826 142.367 C 176.060 142.293,176.252 142.127,176.252 141.998 C 176.252 141.869,176.095 141.824,175.903 141.898 C 175.695 141.978,175.611 141.938,175.697 141.800 C 175.775 141.673,176.058 141.638,176.326 141.723 C 176.773 141.865,176.785 141.844,176.475 141.465 C 176.170 141.090,176.177 141.067,176.551 141.207 C 176.840 141.315,177.164 141.160,177.638 140.686 C 178.009 140.315,178.249 140.011,178.171 140.011 C 178.094 140.011,178.300 139.657,178.631 139.223 C 178.961 138.790,179.162 138.436,179.076 138.436 C 178.991 138.436,179.073 138.284,179.259 138.098 C 179.444 137.912,179.705 137.760,179.838 137.760 C 179.970 137.760,180.079 137.633,180.079 137.477 C 180.079 137.321,180.336 136.915,180.651 136.576 C 180.966 136.236,181.195 135.832,181.159 135.677 C 181.124 135.523,181.195 135.349,181.318 135.290 C 181.853 135.035,182.330 134.478,182.330 134.109 C 182.330 133.889,182.431 133.708,182.555 133.708 C 182.679 133.708,182.780 133.449,182.780 133.132 C 182.780 132.816,182.866 132.610,182.972 132.675 C 183.078 132.741,183.281 132.537,183.424 132.224 C 183.572 131.899,183.587 131.713,183.460 131.793 C 183.331 131.872,183.291 131.785,183.366 131.590 C 183.438 131.403,183.690 131.188,183.926 131.113 C 184.162 131.038,184.356 130.832,184.356 130.654 C 184.356 130.477,184.482 130.330,184.637 130.329 C 184.825 130.326,184.806 130.252,184.581 130.107 C 184.333 129.947,184.322 129.888,184.540 129.885 C 184.740 129.883,184.787 129.725,184.682 129.398 C 184.560 129.013,184.603 128.942,184.892 129.053 C 185.141 129.148,185.256 129.069,185.256 128.803 C 185.256 128.220,186.074 127.766,186.258 128.246 C 186.340 128.461,186.262 128.693,186.071 128.800 C 185.841 128.928,185.763 129.287,185.811 129.995 C 185.849 130.560,185.780 131.007,185.656 131.007 C 185.533 131.007,185.493 131.165,185.567 131.357 C 185.652 131.578,185.610 131.649,185.450 131.551 C 185.278 131.444,185.230 131.653,185.296 132.222 C 185.362 132.784,185.310 133.016,185.133 132.948 C 184.974 132.887,184.866 133.115,184.854 133.538 C 184.843 133.917,184.752 134.288,184.651 134.362 C 184.461 134.501,184.340 134.900,184.292 135.539 C 184.276 135.744,184.133 135.860,183.972 135.798 C 183.781 135.725,183.680 135.882,183.680 136.254 C 183.680 136.567,183.554 136.868,183.399 136.924 C 183.176 137.005,183.175 137.123,183.394 137.495 C 183.599 137.842,183.604 138.006,183.416 138.122 C 183.250 138.225,183.223 138.179,183.339 137.991 C 183.458 137.798,183.414 137.736,183.205 137.805 C 183.033 137.862,182.860 138.128,182.821 138.397 C 182.781 138.666,182.654 138.886,182.539 138.886 C 182.424 138.886,182.330 139.088,182.330 139.336 C 182.330 139.584,182.217 139.786,182.080 139.786 C 181.927 139.786,181.885 140.002,181.972 140.349 C 182.091 140.823,182.033 140.914,181.602 140.927 C 181.119 140.942,181.115 140.953,181.542 141.128 C 181.982 141.309,181.982 141.318,181.559 141.489 C 180.883 141.764,180.282 142.439,180.599 142.568 C 180.796 142.648,180.793 142.682,180.585 142.695 C 180.431 142.704,180.304 142.864,180.304 143.050 C 180.304 143.236,180.205 143.388,180.083 143.388 C 179.962 143.388,179.798 143.644,179.720 143.956 C 179.641 144.269,179.378 144.631,179.135 144.762 C 178.877 144.900,178.746 145.136,178.821 145.330 C 178.893 145.518,178.851 145.602,178.724 145.524 C 178.601 145.447,178.431 145.564,178.347 145.783 C 178.263 146.002,178.036 146.366,177.842 146.590 C 177.649 146.815,177.440 147.206,177.378 147.458 C 177.316 147.710,177.168 147.936,177.050 147.959 C 176.744 148.021,175.802 148.995,175.802 149.251 C 175.802 149.369,175.713 149.465,175.605 149.465 C 175.497 149.465,175.347 149.769,175.273 150.141 C 175.197 150.523,174.994 150.816,174.808 150.816 C 174.304 150.816,174.175 151.201,174.488 151.768 C 174.644 152.049,174.745 152.406,174.714 152.560 C 174.682 152.715,174.770 152.842,174.908 152.842 C 175.046 152.842,175.312 152.995,175.498 153.182 C 175.685 153.368,175.947 153.454,176.080 153.372 C 176.223 153.283,176.256 153.328,176.161 153.482 C 176.073 153.625,176.114 153.742,176.252 153.742 C 176.391 153.742,176.448 153.833,176.379 153.944 C 176.311 154.055,176.414 154.207,176.609 154.281 C 177.105 154.471,177.200 154.452,177.042 154.195 C 176.964 154.069,177.050 154.029,177.239 154.101 C 177.423 154.172,177.519 154.373,177.452 154.549 C 177.376 154.745,177.473 154.868,177.704 154.868 C 177.911 154.868,178.022 154.960,177.952 155.073 C 177.882 155.187,178.122 155.411,178.486 155.571 C 178.849 155.732,179.097 155.943,179.036 156.041 C 178.976 156.139,179.137 156.218,179.395 156.218 C 179.672 156.218,179.965 156.441,180.112 156.763 C 180.274 157.119,180.480 157.262,180.706 157.175 C 180.918 157.094,180.995 157.136,180.905 157.282 C 180.823 157.414,180.913 157.582,181.105 157.655 C 181.296 157.729,181.401 157.706,181.338 157.604 C 181.276 157.502,181.366 157.419,181.539 157.419 C 181.713 157.419,181.848 157.478,181.840 157.550 C 181.787 158.043,181.925 158.275,182.206 158.167 C 182.435 158.079,182.490 158.150,182.392 158.407 C 182.286 158.684,182.346 158.736,182.640 158.624 C 182.871 158.535,182.973 158.565,182.891 158.697 C 182.815 158.819,182.938 158.920,183.163 158.920 C 183.388 158.920,183.699 159.122,183.853 159.370 C 184.008 159.617,184.285 159.820,184.470 159.820 C 184.655 159.820,184.806 159.921,184.806 160.045 C 184.806 160.169,184.958 160.270,185.144 160.270 C 185.329 160.270,185.481 160.371,185.481 160.495 C 185.481 160.619,185.673 160.720,185.907 160.720 C 186.142 160.720,186.396 160.884,186.473 161.084 C 186.560 161.311,186.776 161.404,187.052 161.332 C 187.294 161.268,187.470 161.297,187.443 161.396 C 187.416 161.495,187.487 161.577,187.599 161.578 C 187.712 161.579,187.894 161.741,188.004 161.938 C 188.115 162.135,188.459 162.296,188.770 162.296 C 189.089 162.296,189.274 162.394,189.195 162.521 C 189.119 162.645,189.214 162.746,189.407 162.746 C 189.600 162.746,189.758 162.841,189.758 162.956 C 189.758 163.072,190.011 163.121,190.321 163.065 C 190.777 162.982,190.884 163.053,190.884 163.441 C 190.884 163.757,190.990 163.879,191.195 163.800 C 191.367 163.734,191.728 163.835,191.997 164.024 C 192.267 164.213,192.689 164.314,192.936 164.250 C 193.325 164.148,193.347 164.183,193.099 164.508 C 192.941 164.715,192.894 164.816,192.995 164.731 C 193.187 164.571,194.845 165.345,195.062 165.696 C 195.131 165.807,195.434 165.898,195.736 165.898 C 196.039 165.898,196.286 166.016,196.286 166.160 C 196.286 166.305,196.351 166.358,196.430 166.279 C 196.509 166.199,196.838 166.276,197.162 166.449 C 197.694 166.733,198.376 167.020,198.818 167.144 C 198.911 167.170,199.190 167.205,199.437 167.220 C 199.689 167.236,199.887 167.408,199.887 167.610 C 199.887 167.824,200.013 167.923,200.197 167.853 C 200.367 167.787,200.771 167.871,201.094 168.039 C 201.461 168.229,201.732 168.260,201.817 168.122 C 201.901 167.987,202.054 167.981,202.215 168.108 C 202.825 168.591,205.200 168.419,205.463 167.873 C 205.598 167.591,205.716 167.487,205.725 167.642 C 205.733 167.797,205.904 167.923,206.105 167.923 C 206.380 167.923,206.410 167.851,206.226 167.629 C 206.033 167.396,206.179 167.324,206.930 167.284 C 207.452 167.255,207.988 167.088,208.122 166.911 C 208.256 166.735,208.796 166.521,209.322 166.437 C 209.848 166.353,210.173 166.219,210.044 166.140 C 209.905 166.053,209.998 165.877,210.275 165.704 C 210.530 165.545,210.672 165.523,210.590 165.656 C 210.360 166.027,211.050 165.942,211.367 165.560 C 211.522 165.374,211.775 165.222,211.930 165.222 C 212.086 165.222,212.333 165.077,212.480 164.900 C 212.627 164.723,212.941 164.616,213.178 164.661 C 213.424 164.709,213.587 164.630,213.558 164.477 C 213.525 164.311,213.740 164.234,214.125 164.274 C 214.465 164.310,214.744 164.246,214.744 164.132 C 214.744 164.018,214.972 163.862,215.250 163.785 C 215.633 163.681,215.683 163.599,215.457 163.453 C 215.216 163.297,215.229 163.231,215.525 163.118 C 215.740 163.035,215.836 163.069,215.755 163.199 C 215.541 163.545,216.232 163.461,216.528 163.105 C 216.672 162.930,217.140 162.622,217.568 162.419 C 217.996 162.216,218.346 161.956,218.346 161.842 C 218.346 161.728,218.487 161.689,218.660 161.756 C 218.834 161.822,219.042 161.768,219.124 161.636 C 219.206 161.504,219.482 161.396,219.737 161.396 C 220.090 161.396,220.144 161.326,219.961 161.106 C 219.776 160.883,219.861 160.805,220.327 160.766 C 220.661 160.739,220.968 160.616,221.009 160.493 C 221.050 160.371,221.228 160.270,221.403 160.270 C 221.579 160.270,221.722 160.163,221.722 160.032 C 221.722 159.901,221.605 159.866,221.462 159.954 C 221.298 160.055,221.263 160.015,221.369 159.846 C 221.460 159.698,221.729 159.638,221.966 159.713 C 222.270 159.810,222.397 159.742,222.397 159.484 C 222.397 159.283,222.484 159.172,222.589 159.237 C 222.695 159.302,222.890 159.118,223.022 158.828 C 223.182 158.477,223.453 158.301,223.831 158.301 C 224.143 158.301,224.561 158.138,224.759 157.940 C 224.957 157.742,225.469 157.414,225.897 157.211 C 226.324 157.008,226.674 156.702,226.674 156.530 C 226.674 156.359,226.888 156.218,227.148 156.218 C 227.470 156.218,227.582 156.113,227.498 155.892 C 227.411 155.667,227.481 155.607,227.721 155.700 C 227.913 155.774,228.160 155.692,228.269 155.520 C 228.550 155.076,228.522 154.812,228.215 155.002 C 228.058 155.099,228.016 155.064,228.110 154.912 C 228.195 154.775,228.419 154.722,228.608 154.794 C 228.831 154.880,228.994 154.766,229.071 154.472 C 229.136 154.221,229.595 153.835,230.095 153.610 C 231.329 153.053,232.387 152.038,232.210 151.578 C 232.091 151.267,232.015 151.259,231.680 151.522 C 231.335 151.792,231.322 151.787,231.565 151.475 C 231.783 151.195,231.783 151.058,231.565 150.823 C 231.346 150.587,231.347 150.558,231.570 150.684 C 231.725 150.771,231.851 150.735,231.851 150.604 C 231.851 150.473,231.743 150.366,231.610 150.366 C 231.293 150.366,230.726 149.791,230.726 149.468 C 230.726 149.328,230.625 149.276,230.501 149.353 C 230.377 149.429,230.273 149.309,230.269 149.085 C 230.260 148.587,229.757 147.890,229.407 147.890 C 229.266 147.890,229.150 147.687,229.150 147.440 C 229.150 147.192,229.049 146.989,228.925 146.989 C 228.801 146.989,228.700 146.846,228.700 146.670 C 228.700 146.495,228.610 146.318,228.500 146.276 C 228.390 146.235,228.054 145.761,227.753 145.222 C 227.452 144.683,227.112 144.247,226.996 144.252 C 226.881 144.257,226.712 144.058,226.620 143.810 C 226.528 143.562,226.352 143.421,226.228 143.498 C 226.095 143.580,226.063 143.483,226.149 143.258 C 226.244 143.011,226.107 142.728,225.753 142.439 C 225.455 142.196,225.338 142.063,225.492 142.143 C 225.647 142.223,225.774 142.182,225.774 142.050 C 225.774 141.919,225.672 141.812,225.549 141.812 C 225.425 141.812,225.324 141.649,225.324 141.450 C 225.324 141.216,225.201 141.136,224.974 141.223 C 224.774 141.300,224.684 141.262,224.762 141.134 C 224.838 141.012,224.798 140.912,224.674 140.912 C 224.550 140.912,224.490 140.697,224.541 140.435 C 224.598 140.140,224.443 139.790,224.134 139.517 C 223.860 139.275,223.772 139.147,223.940 139.234 C 224.161 139.348,224.145 139.239,223.883 138.839 C 223.684 138.536,223.589 138.219,223.672 138.136 C 223.755 138.053,223.664 137.985,223.469 137.985 C 223.233 137.985,223.152 137.844,223.226 137.561 C 223.287 137.327,223.227 137.068,223.092 136.985 C 222.958 136.901,222.847 136.634,222.847 136.389 C 222.847 136.145,222.696 135.887,222.510 135.816 C 222.314 135.740,222.172 135.404,222.172 135.011 C 222.172 134.518,222.085 134.369,221.851 134.459 C 221.599 134.556,221.556 134.421,221.651 133.836 C 221.721 133.403,221.667 133.026,221.522 132.936 C 221.384 132.851,221.272 132.585,221.272 132.345 C 221.272 132.104,221.145 131.906,220.990 131.904 C 220.803 131.902,220.822 131.828,221.047 131.683 C 221.345 131.490,221.345 131.464,221.041 131.461 C 220.776 131.458,220.717 131.251,220.783 130.559 C 220.847 129.887,220.777 129.626,220.507 129.522 C 220.262 129.428,220.146 129.104,220.146 128.514 C 220.146 127.834,220.220 127.673,220.484 127.775 C 220.670 127.846,220.822 128.023,220.822 128.168 C 220.822 128.313,221.024 128.605,221.272 128.817 C 221.519 129.029,221.722 129.449,221.722 129.751 C 221.722 130.053,221.869 130.447,222.049 130.627 C 222.229 130.807,222.313 131.016,222.237 131.093 C 222.160 131.170,222.223 131.232,222.376 131.232 C 222.838 131.232,223.347 131.847,223.014 132.002 C 222.793 132.106,222.793 132.160,223.016 132.264 C 223.171 132.336,223.298 132.485,223.298 132.594 C 223.298 132.955,224.582 134.825,224.729 134.678 C 224.808 134.599,224.873 134.753,224.873 135.022 C 224.873 135.290,224.975 135.509,225.098 135.509 C 225.222 135.509,225.324 135.655,225.324 135.834 C 225.324 136.012,225.441 136.230,225.583 136.319 C 225.755 136.425,225.782 136.380,225.661 136.185 C 225.543 135.994,225.567 135.944,225.729 136.044 C 225.867 136.129,225.915 136.365,225.837 136.569 C 225.730 136.847,225.789 136.902,226.075 136.792 C 226.381 136.675,226.430 136.746,226.326 137.158 C 226.229 137.544,226.331 137.742,226.739 137.960 C 227.037 138.119,227.418 138.599,227.585 139.025 C 227.778 139.516,228.001 139.757,228.194 139.683 C 228.361 139.619,228.439 139.662,228.367 139.778 C 228.195 140.058,228.935 140.912,229.350 140.912 C 229.529 140.912,229.610 140.978,229.529 141.058 C 229.449 141.139,229.639 141.442,229.953 141.733 C 230.267 142.024,230.469 142.262,230.401 142.262 C 230.334 142.262,230.496 142.512,230.761 142.817 C 231.027 143.123,231.329 143.320,231.433 143.256 C 231.536 143.192,231.561 143.296,231.487 143.489 C 231.407 143.698,231.476 143.840,231.659 143.843 C 231.827 143.846,232.457 144.298,233.060 144.849 C 233.662 145.399,234.447 145.979,234.804 146.137 C 235.161 146.295,235.453 146.504,235.453 146.601 C 235.453 146.699,235.808 146.754,236.241 146.725 C 236.674 146.696,237.029 146.588,237.029 146.485 C 237.029 146.382,237.218 146.399,237.449 146.523 C 237.681 146.647,237.934 146.684,238.012 146.606 C 238.257 146.361,238.176 143.347,237.929 143.500 C 237.805 143.577,237.704 143.437,237.704 143.189 C 237.704 142.942,237.603 142.676,237.479 142.600 C 237.355 142.523,237.254 142.264,237.254 142.024 C 237.254 141.784,237.153 141.587,237.029 141.587 C 236.905 141.587,236.804 141.381,236.804 141.130 C 236.804 140.878,236.658 140.617,236.480 140.548 C 236.302 140.480,236.205 140.300,236.263 140.147 C 236.321 139.995,236.170 139.690,235.926 139.469 C 235.669 139.236,235.540 138.920,235.620 138.713 C 235.716 138.463,235.657 138.395,235.422 138.486 C 235.160 138.586,235.109 138.466,235.188 137.930 C 235.257 137.458,235.209 137.295,235.033 137.404 C 234.799 137.548,234.684 137.125,234.717 136.241 C 234.723 136.086,234.638 135.959,234.528 135.959 C 234.418 135.959,234.328 135.713,234.328 135.413 C 234.328 135.112,234.176 134.714,233.990 134.528 C 233.804 134.343,233.652 134.052,233.652 133.882 C 233.652 133.712,233.526 133.437,233.371 133.270 C 233.146 133.028,233.146 132.999,233.371 133.126 C 233.526 133.213,233.652 133.186,233.652 133.065 C 233.652 132.944,233.540 132.808,233.402 132.762 C 233.195 132.693,233.100 131.557,233.185 130.163 C 233.214 129.689,233.877 129.850,233.877 130.332 C 233.877 130.580,233.979 130.782,234.102 130.782 C 234.226 130.782,234.328 130.991,234.328 131.246 C 234.328 131.501,234.429 131.647,234.553 131.570 C 234.676 131.494,234.778 131.629,234.778 131.870 C 234.778 132.112,234.936 132.371,235.130 132.445 C 235.323 132.519,235.425 132.671,235.356 132.783 C 235.287 132.895,235.388 133.047,235.581 133.121 C 235.774 133.195,235.869 133.356,235.793 133.479 C 235.713 133.609,235.802 133.647,236.004 133.569 C 236.255 133.473,236.361 133.584,236.380 133.966 C 236.395 134.258,236.412 134.547,236.418 134.609 C 236.440 134.846,237.479 135.706,237.479 135.488 C 237.479 135.361,237.571 135.314,237.683 135.384 C 237.795 135.453,237.838 135.698,237.777 135.929 C 237.665 136.360,238.235 136.751,238.625 136.510 C 238.737 136.440,238.829 136.490,238.829 136.621 C 238.829 136.753,238.728 136.860,238.604 136.860 C 238.481 136.860,238.379 136.961,238.379 137.085 C 238.379 137.209,238.541 137.310,238.738 137.310 C 238.935 137.310,239.150 137.513,239.214 137.760 C 239.279 138.008,239.422 138.210,239.531 138.210 C 239.640 138.210,239.730 138.362,239.730 138.548 C 239.730 138.842,240.024 138.998,240.258 138.829 C 240.430 138.705,241.067 139.401,240.952 139.587 C 240.884 139.696,240.993 139.786,241.193 139.786 C 241.393 139.786,241.495 139.887,241.418 140.011 C 241.339 140.139,241.525 140.236,241.845 140.236 C 242.495 140.236,243.633 139.206,243.679 138.576 C 243.697 138.344,243.944 137.978,244.229 137.763 C 244.514 137.548,244.680 137.264,244.599 137.132 C 244.517 137.000,244.654 136.828,244.904 136.748 C 245.153 136.669,245.357 136.409,245.357 136.169 C 245.357 135.930,245.448 135.734,245.558 135.734 C 245.729 135.734,246.067 134.893,246.127 134.319 C 246.137 134.222,246.246 134.070,246.370 133.982 C 246.494 133.893,246.628 133.669,246.669 133.483 C 246.709 133.298,246.835 133.112,246.950 133.071 C 247.064 133.029,247.158 132.745,247.158 132.438 C 247.158 132.132,247.256 131.942,247.376 132.016 C 247.647 132.183,248.282 130.713,248.287 129.911 C 248.290 129.446,248.337 129.392,248.509 129.657 C 248.685 129.929,248.728 129.896,248.730 129.485 C 248.734 128.967,249.139 128.084,249.489 127.828 C 249.595 127.750,249.570 127.618,249.433 127.533 C 249.116 127.337,249.109 126.956,249.422 126.956 C 249.554 126.956,249.589 127.072,249.500 127.215 C 249.401 127.376,249.438 127.414,249.599 127.315 C 249.742 127.226,249.859 126.957,249.859 126.717 C 249.859 126.477,249.986 126.279,250.141 126.277 C 250.328 126.275,250.310 126.201,250.084 126.055 C 249.839 125.897,249.827 125.836,250.041 125.833 C 250.203 125.832,250.273 125.728,250.196 125.603 C 250.119 125.479,250.217 125.315,250.413 125.240 C 250.682 125.137,250.736 124.920,250.632 124.367 C 250.543 123.890,250.593 123.570,250.774 123.458 C 250.955 123.346,250.997 123.377,250.894 123.544 C 250.805 123.687,250.840 123.804,250.972 123.804 C 251.184 123.804,251.332 122.620,251.222 121.812 C 251.199 121.645,251.288 121.575,251.420 121.656 C 251.754 121.863,251.722 121.259,251.379 120.890 C 251.154 120.647,251.154 120.619,251.379 120.746 C 251.533 120.833,251.660 120.790,251.660 120.650 C 251.660 120.510,251.818 120.237,252.012 120.044 C 252.205 119.851,252.346 119.427,252.325 119.103 C 252.266 118.176,252.320 117.915,252.541 118.052 C 252.654 118.122,252.795 117.546,252.854 116.771 C 252.912 115.997,253.030 115.059,253.116 114.688 C 253.240 114.147,253.218 114.080,253.007 114.350 C 252.788 114.630,252.772 114.611,252.910 114.237 C 253.002 113.990,253.120 113.232,253.173 112.553 C 253.225 111.874,253.353 111.216,253.457 111.090 C 253.713 110.781,253.693 96.148,253.437 95.990 C 253.326 95.921,253.236 95.221,253.236 94.434 C 253.236 93.634,253.132 92.968,252.999 92.924 C 252.869 92.881,252.750 92.317,252.736 91.672 C 252.716 90.798,252.641 90.554,252.443 90.718 C 252.245 90.883,252.201 90.707,252.270 90.020 C 252.325 89.466,252.236 88.907,252.047 88.613 C 251.873 88.345,251.663 87.847,251.579 87.507 C 251.495 87.167,251.341 86.888,251.237 86.888 C 251.133 86.888,251.093 86.647,251.150 86.352 C 251.206 86.057,251.141 85.747,251.006 85.663 C 250.871 85.579,250.760 85.264,250.760 84.961 C 250.760 84.645,250.628 84.412,250.450 84.412 C 249.969 84.412,249.548 83.816,249.883 83.609 C 250.049 83.507,250.095 83.537,250.003 83.686 C 249.920 83.821,249.955 83.994,250.081 84.072 C 250.207 84.150,250.310 84.052,250.310 83.855 C 250.310 83.659,250.158 83.439,249.972 83.368 C 249.786 83.297,249.634 83.036,249.634 82.788 C 249.634 82.487,249.526 82.379,249.308 82.463 C 249.090 82.547,249.023 82.480,249.107 82.262 C 249.178 82.077,249.100 81.934,248.927 81.932 C 248.691 81.930,248.698 81.879,248.959 81.711 C 249.184 81.565,249.203 81.491,249.015 81.489 C 248.860 81.487,248.734 81.330,248.734 81.141 C 248.734 80.951,248.506 80.704,248.227 80.592 C 247.949 80.480,247.847 80.382,248.002 80.374 C 248.157 80.367,248.284 80.248,248.284 80.111 C 248.284 79.974,248.133 79.920,247.949 79.990 C 247.582 80.131,247.158 79.519,247.158 78.849 C 247.158 78.621,246.956 78.288,246.708 78.109 C 246.460 77.931,246.258 77.679,246.258 77.550 C 246.258 77.421,245.998 77.121,245.682 76.883 C 245.365 76.645,244.833 76.215,244.500 75.928 C 244.167 75.641,243.778 75.450,243.635 75.504 C 243.492 75.558,243.320 75.390,243.252 75.130 C 243.157 74.764,243.061 74.715,242.826 74.910 C 242.592 75.105,242.381 75.012,241.900 74.502 C 241.557 74.139,241.207 73.852,241.122 73.864 C 240.606 73.937,239.946 73.804,240.043 73.646 C 240.107 73.544,239.742 73.468,239.233 73.477 C 238.532 73.490,238.283 73.399,238.205 73.101 C 238.148 72.884,237.956 72.707,237.777 72.707 C 237.577 72.707,237.517 72.815,237.621 72.988 C 237.750 73.202,237.712 73.210,237.466 73.022 C 237.061 72.712,233.046 72.639,232.861 72.938 C 232.786 73.058,232.624 73.157,232.500 73.157 C 232.376 73.157,232.338 73.056,232.414 72.932 C 232.491 72.808,232.399 72.707,232.209 72.707 C 231.980 72.707,231.911 72.838,232.001 73.101 C 232.112 73.421,232.069 73.410,231.776 73.044 C 231.426 72.607,231.376 72.625,231.317 73.209 C 231.301 73.361,230.985 73.490,230.613 73.497 C 230.242 73.503,229.546 73.682,229.066 73.895 C 228.587 74.108,228.106 74.282,227.997 74.282 C 227.889 74.282,227.800 74.390,227.800 74.521 C 227.800 74.652,227.917 74.687,228.060 74.599 C 228.217 74.501,228.258 74.537,228.165 74.688 C 228.080 74.826,227.862 74.881,227.680 74.811 C 227.498 74.742,227.349 74.788,227.349 74.915 C 227.349 75.042,227.476 75.190,227.631 75.244 C 227.786 75.298,227.622 75.345,227.268 75.347 C 226.609 75.352,226.148 75.779,226.386 76.164 C 226.459 76.281,226.413 76.313,226.283 76.233 C 226.007 76.061,225.246 77.127,225.432 77.426 C 225.501 77.539,225.390 77.725,225.185 77.840 C 224.574 78.182,224.998 83.219,225.697 83.918 C 225.945 84.165,225.999 84.166,226.002 83.922 C 226.005 83.696,226.056 83.703,226.213 83.951 C 226.326 84.131,226.376 84.348,226.324 84.433 C 226.131 84.744,227.272 85.300,227.544 85.028 C 227.735 84.837,227.800 84.837,227.800 85.029 C 227.800 85.171,227.598 85.428,227.351 85.601 C 227.104 85.774,226.959 85.972,227.028 86.042 C 227.098 86.111,227.021 86.162,226.858 86.155 C 226.098 86.122,225.774 86.240,225.774 86.550 C 225.774 86.736,225.580 86.888,225.342 86.888 C 225.105 86.888,224.860 87.015,224.797 87.169 C 224.714 87.377,224.679 87.370,224.666 87.142 C 224.653 86.912,224.572 86.896,224.351 87.079 C 223.916 87.440,219.331 87.513,218.982 87.165 C 218.830 87.013,218.422 86.888,218.075 86.888 C 217.691 86.888,217.467 86.778,217.501 86.607 C 217.533 86.448,217.347 86.332,217.074 86.341 C 216.760 86.351,216.631 86.251,216.705 86.057 C 216.785 85.847,216.700 85.803,216.420 85.911 C 216.145 86.016,216.072 85.981,216.185 85.799 C 216.346 85.537,215.467 85.046,215.159 85.227 C 215.078 85.274,215.068 85.094,215.138 84.827 C 215.225 84.494,215.183 84.392,215.005 84.503 C 214.841 84.604,214.744 84.500,214.744 84.224 C 214.744 83.838,214.205 83.395,213.821 83.465 C 213.746 83.478,213.736 83.225,213.797 82.903 C 213.893 82.401,213.843 82.334,213.451 82.436 C 213.036 82.545,213.004 82.475,213.110 81.683 C 213.200 81.017,213.150 80.810,212.901 80.810 C 212.663 80.810,212.593 80.585,212.641 79.976 C 212.677 79.517,212.595 79.072,212.458 78.988 C 212.321 78.903,212.195 78.241,212.178 77.515 C 212.161 76.789,212.058 76.054,211.948 75.880 C 211.811 75.662,211.829 75.614,212.008 75.724 C 212.151 75.812,212.268 75.783,212.268 75.660 C 212.268 75.536,212.158 75.367,212.023 75.283 C 211.889 75.200,211.828 74.941,211.890 74.707 C 211.951 74.474,211.934 74.283,211.853 74.283 C 211.772 74.283,211.716 73.216,211.728 71.912 C 211.747 70.036,211.682 69.502,211.419 69.355 C 211.186 69.225,211.086 68.785,211.086 67.895 C 211.086 67.194,210.997 66.566,210.889 66.499 C 210.781 66.432,210.692 66.136,210.692 65.841 C 210.692 65.546,210.575 65.233,210.432 65.145 C 210.260 65.038,210.234 65.084,210.355 65.279 C 210.472 65.469,210.449 65.519,210.287 65.419 C 210.149 65.334,210.094 65.115,210.163 64.934 C 210.233 64.752,210.178 64.603,210.041 64.603 C 209.904 64.603,209.792 64.350,209.792 64.041 C 209.792 63.731,209.690 63.465,209.567 63.450 C 209.443 63.434,209.215 63.409,209.060 63.393 C 208.905 63.378,208.766 63.239,208.751 63.084 C 208.735 62.929,208.710 62.701,208.694 62.577 C 208.679 62.454,208.464 62.352,208.216 62.352 C 207.968 62.352,207.766 62.251,207.766 62.127 C 207.766 62.003,207.614 61.902,207.428 61.902 C 207.243 61.902,207.091 61.801,207.091 61.677 C 207.091 61.553,206.992 61.452,206.873 61.452 C 206.753 61.452,206.721 61.629,206.802 61.846 C 206.931 62.190,206.902 62.201,206.572 61.933 C 206.365 61.764,206.241 61.551,206.298 61.460 C 206.481 61.163,205.343 60.718,204.656 60.818 C 204.210 60.884,204.019 60.830,204.086 60.657 C 204.265 60.189,196.978 60.241,196.458 60.712 C 196.068 61.065,196.051 61.065,196.188 60.708 C 196.362 60.254,196.301 60.244,195.779 60.640 M195.498 76.705 C 195.518 76.970,195.443 77.132,195.332 77.063 C 195.221 76.994,195.182 76.803,195.245 76.638 C 195.308 76.473,195.262 76.288,195.142 76.227 C 195.022 76.167,195.045 76.141,195.193 76.169 C 195.341 76.198,195.479 76.439,195.498 76.705 M223.748 132.470 C 223.748 132.656,223.849 132.808,223.973 132.808 C 224.097 132.808,224.198 132.906,224.198 133.026 C 224.198 133.146,224.056 133.190,223.883 133.123 C 223.524 132.985,223.232 132.133,223.544 132.133 C 223.656 132.133,223.748 132.285,223.748 132.470 M223.209 158.825 C 222.998 159.376,223.044 159.431,223.410 159.064 C 223.793 158.682,223.842 158.469,223.547 158.469 C 223.436 158.469,223.284 158.630,223.209 158.825 " stroke="none" fill="#04acec" fill-rule="evenodd"></path><path id="path1" d="M206.319 61.426 C 206.251 61.536,206.340 61.746,206.518 61.894 C 206.781 62.112,206.834 62.075,206.805 61.694 C 206.768 61.209,206.533 61.080,206.319 61.426 M208.779 63.028 C 208.702 63.151,208.671 63.260,208.709 63.270 C 209.450 63.453,209.577 63.423,209.327 63.122 C 209.011 62.742,208.961 62.733,208.779 63.028 M211.062 68.603 C 210.933 68.811,211.448 69.555,211.721 69.555 C 211.911 69.555,211.812 69.184,211.514 68.777 C 211.321 68.512,211.157 68.449,211.062 68.603 M185.875 69.260 C 185.658 69.317,185.481 69.457,185.481 69.572 C 185.481 69.867,185.748 69.820,186.256 69.436 C 186.693 69.105,186.612 69.068,185.875 69.260 M195.142 76.227 C 195.262 76.288,195.308 76.473,195.245 76.638 C 195.182 76.803,195.221 76.994,195.332 77.063 C 195.443 77.132,195.518 76.970,195.498 76.705 C 195.479 76.439,195.341 76.198,195.193 76.169 C 195.045 76.141,195.022 76.167,195.142 76.227 M180.997 77.940 C 180.987 78.157,181.086 78.334,181.218 78.334 C 181.349 78.334,181.384 78.451,181.295 78.594 C 181.196 78.755,181.234 78.793,181.395 78.693 C 181.538 78.605,181.654 78.381,181.654 78.195 C 181.654 78.009,181.562 77.915,181.449 77.985 C 181.335 78.055,181.191 77.985,181.129 77.829 C 181.060 77.659,181.008 77.703,180.997 77.940 M189.590 86.567 C 189.415 86.754,189.395 86.915,189.535 87.002 C 189.658 87.078,189.758 87.040,189.758 86.918 C 189.758 86.796,189.935 86.660,190.152 86.616 C 190.478 86.551,190.487 86.514,190.207 86.403 C 190.021 86.329,189.743 86.403,189.590 86.567 M154.192 88.801 C 154.192 88.946,154.344 89.064,154.530 89.064 C 154.716 89.064,154.868 88.946,154.868 88.801 C 154.868 88.657,154.716 88.539,154.530 88.539 C 154.344 88.539,154.192 88.657,154.192 88.801 M153.038 95.273 C 152.897 95.549,152.948 96.303,153.102 96.208 C 153.210 96.141,153.234 95.980,153.154 95.851 C 153.075 95.722,153.149 95.528,153.320 95.420 C 153.544 95.278,153.552 95.223,153.348 95.220 C 153.194 95.218,153.054 95.242,153.038 95.273 M153.292 115.476 C 153.292 115.599,153.399 115.701,153.530 115.701 C 153.662 115.701,153.697 115.827,153.610 115.982 C 153.488 116.198,153.517 116.202,153.735 116.002 C 153.891 115.858,153.950 115.630,153.867 115.495 C 153.677 115.188,153.292 115.175,153.292 115.476 M249.218 127.169 C 249.315 127.460,249.623 127.512,249.651 127.243 C 249.660 127.153,249.546 127.039,249.398 126.989 C 249.249 126.940,249.168 127.021,249.218 127.169 M221.275 129.150 C 221.273 129.429,221.373 129.657,221.497 129.657 C 221.779 129.657,221.779 129.418,221.497 128.981 C 221.320 128.708,221.278 128.741,221.275 129.150 M159.354 132.553 C 159.478 132.785,159.515 133.038,159.437 133.116 C 159.359 133.194,159.424 133.258,159.581 133.258 C 159.750 133.258,159.812 133.112,159.731 132.902 C 159.656 132.706,159.595 132.453,159.595 132.339 C 159.595 132.226,159.490 132.133,159.362 132.133 C 159.204 132.133,159.201 132.269,159.354 132.553 M223.410 132.647 C 223.410 132.987,223.544 133.162,223.804 133.162 C 224.021 133.162,224.198 133.082,224.198 132.985 C 224.198 132.888,224.097 132.808,223.973 132.808 C 223.849 132.808,223.748 132.656,223.748 132.470 C 223.748 132.285,223.672 132.133,223.579 132.133 C 223.486 132.133,223.410 132.364,223.410 132.647 M178.053 139.336 C 177.808 139.495,177.796 139.555,178.010 139.558 C 178.185 139.560,178.236 139.675,178.136 139.842 C 178.019 140.036,178.085 140.028,178.345 139.817 C 178.893 139.372,178.641 138.956,178.053 139.336 M174.226 151.773 C 174.226 151.975,174.334 152.207,174.466 152.288 C 174.852 152.527,174.890 152.313,174.545 151.842 C 174.278 151.477,174.226 151.465,174.226 151.773 M223.055 158.728 C 222.921 158.978,222.861 159.233,222.921 159.293 C 222.982 159.354,223.101 159.186,223.185 158.920 C 223.276 158.633,223.464 158.485,223.648 158.556 C 223.819 158.621,224.005 158.599,224.063 158.506 C 224.120 158.414,223.972 158.323,223.733 158.305 C 223.494 158.287,223.189 158.477,223.055 158.728 M190.125 163.243 C 190.279 163.493,190.884 163.467,190.884 163.210 C 190.884 163.094,190.688 163.014,190.449 163.032 C 190.210 163.050,190.064 163.145,190.125 163.243 M202.930 168.368 C 202.748 168.662,203.266 168.912,203.524 168.654 C 203.668 168.510,203.625 168.387,203.399 168.301 C 203.209 168.228,202.998 168.258,202.930 168.368 " stroke="none" fill="#04b4ec" fill-rule="evenodd"></path><path id="path2" d="" stroke="none" fill="#08acec" fill-rule="evenodd"></path><path id="path3" d="" stroke="none" fill="#08acec" fill-rule="evenodd"></path><path id="path4" d="" stroke="none" fill="#08acec" fill-rule="evenodd"></path></g></svg>